<?xml version="1.0" ?>
<svg style="enable-background:new 0 0 32 32;" version="1.1" viewBox="0 0 32 32" xml:space="preserve"
	xmlns="http://www.w3.org/2000/svg" xmlns:xlink="http://www.w3.org/1999/xlink">
  <defs>
	<linearGradient id="mainGradient" x1="32" y1="32" x2="6" y2="0" gradientUnits="userSpaceOnUse">
	  <stop stop-color="#B9FFB3"/>
	  <stop offset="1" stop-color="#B9FFB3" stop-opacity="0"/>
	</linearGradient>
	<linearGradient id="overlayGradient" x1="32" y1="32" x2="16" y2="24" gradientUnits="userSpaceOnUse">
	  <stop stop-color="#1A1A1A" stop-opacity="0.9"/>
	  <stop offset="1" stop-color="#1A1A1A" stop-opacity="0"/>
	</linearGradient>
  </defs>
  <style type="text/css">
	.st0{display:none;}
	.st1{fill:none;}
  </style>
  <g class="st0" id="grid"/>
  <g id="Layer_2">
	<g>
	  <path d="M16,30.67l-0.8-1.07c-0.03-0.04-2.9-3.89-5.39-8.09l1.72-1.02c1.64,2.77,3.46,5.39,4.47,6.81
		c2.8-3.91,8-11.86,8-15.3c0-4.41-3.59-8-8-8s-8,3.59-8,8c0,0.94,0.42,2.83,2.42,6.52l-1.76,0.95C6.87,16.17,6,13.72,6,12
		C6,6.49,10.49,2,16,2s10,4.49,10,10c0,5.15-8.26,16.34-9.2,17.6L16,30.67z"
		fill="url(#mainGradient)"/>
	  <path d="M16,30.67l-0.8-1.07c-0.03-0.04-2.9-3.89-5.39-8.09l1.72-1.02c1.64,2.77,3.46,5.39,4.47,6.81
		c2.8-3.91,8-11.86,8-15.3c0-4.41-3.59-8-8-8s-8,3.59-8,8c0,0.94,0.42,2.83,2.42,6.52l-1.76,0.95C6.87,16.17,6,13.72,6,12
		C6,6.49,10.49,2,16,2s10,4.49,10,10c0,5.15-8.26,16.34-9.2,17.6L16,30.67z"
		fill="url(#overlayGradient)"/>
	</g>
	<g>
	  <path d="M16,16c-2.21,0-4-1.79-4-4s1.79-4,4-4s4,1.79,4,4S18.21,16,16,16z M16,10c-1.1,0-2,0.9-2,2s0.9,2,2,2
		s2-0.9,2-2S17.1,10,16,10z"
		fill="#12FFF7"/>
	</g>
  </g>
</svg>