<?xml version="1.0" encoding="UTF-8" standalone="no"?>
<!-- Created with Inkscape (http://www.inkscape.org/) -->

<svg
   width="264.58337mm"
   height="264.58337mm"
   viewBox="0 0 264.58337 264.58337"
   version="1.1"
   id="svg5"
   xml:space="preserve"
   xmlns:inkscape="http://www.inkscape.org/namespaces/inkscape"
   xmlns:sodipodi="http://sodipodi.sourceforge.net/DTD/sodipodi-0.dtd"
   xmlns="http://www.w3.org/2000/svg"
   xmlns:svg="http://www.w3.org/2000/svg"><sodipodi:namedview
     id="namedview7"
     pagecolor="#ffffff"
     bordercolor="#000000"
     borderopacity="0.25"
     inkscape:showpageshadow="2"
     inkscape:pageopacity="0.0"
     inkscape:pagecheckerboard="0"
     inkscape:deskcolor="#d1d1d1"
     inkscape:document-units="mm"
     showgrid="false" /><defs
     id="defs2"><clipPath
       clipPathUnits="userSpaceOnUse"
       id="clipPath7165"><rect
         style="fill:#ffffff;stroke-width:2.53956"
         id="rect7167"
         width="747.08368"
         height="747.08575"
         x="-278.73117"
         y="-618.57037" /></clipPath><clipPath
       clipPathUnits="userSpaceOnUse"
       id="clipPath7169"><rect
         style="fill:#ffffff;stroke-width:2.53956"
         id="rect7171"
         width="747.08368"
         height="747.08575"
         x="-278.73117"
         y="128.5153" /></clipPath><clipPath
       clipPathUnits="userSpaceOnUse"
       id="clipPath7173"><rect
         style="fill:#ffffff;stroke-width:2.53956"
         id="rect7175"
         width="747.08368"
         height="747.08575"
         x="-645.23419"
         y="-223.37932" /></clipPath><clipPath
       clipPathUnits="userSpaceOnUse"
       id="clipPath7177"><rect
         style="fill:#ffffff;stroke-width:2.53956"
         id="rect7179"
         width="747.08368"
         height="747.08575"
         x="101.84942"
         y="-223.37932" /></clipPath><clipPath
       clipPathUnits="userSpaceOnUse"
       id="clipPath7181"><rect
         style="fill:#ffffff;stroke-width:0.899398"
         id="rect7183"
         width="264.58337"
         height="264.58337"
         x="302.75711"
         y="241.46098" /></clipPath></defs><g
     inkscape:label="Capa 1"
     inkscape:groupmode="layer"
     id="layer1"
     transform="translate(-302.75709,-241.46099)"><g
       id="g7202"><rect
         style="fill:#ffffff;stroke-width:0.899398"
         id="rect234"
         width="264.58334"
         height="264.58334"
         x="302.75711"
         y="241.46098"
         clip-path="url(#clipPath7181)" /><g
         style="fill:#000000"
         id="g2987"
         transform="matrix(0.35415492,0,0,0.35415393,266.68663,320.57165)"
         clip-path="url(#clipPath7177)"><g
           id="g2977"
           transform="translate(-43.986714,-17.212236)">
	<g
   id="g2975">
		<path
   d="M 256.581,147.826 C 253.696,125.128 235.028,107.288 211.957,105.69 199.345,74.956 169.29,54.615 135.771,54.615 92.523,54.615 56.954,88.121 53.662,130.538 23.788,132.214 0,157.048 0,187.333 0,218.7 25.519,244.219 56.886,244.219 h 193.558 c 26.682,0 48.39,-21.707 48.39,-48.39 0,-24.606 -18.456,-44.979 -42.253,-48.003 z m -6.138,83.342 H 56.886 c -24.171,0 -43.836,-19.664 -43.836,-43.835 0,-24.171 19.665,-43.836 43.836,-43.836 0.798,0 1.668,0.029 2.66,0.089 3.77,0.224 6.919,-2.773 6.919,-6.513 0,-0.063 -0.001,-0.125 -0.003,-0.188 0.045,-38.178 31.12,-69.221 69.308,-69.221 29.502,0 55.817,18.727 65.482,46.601 0.884,2.548 3.175,4.477 6.743,4.373 16.236,-0.571 32.036,11.354 35.307,28.8 h -19.11 c -3.604,0 -6.525,2.921 -6.525,6.525 0,3.604 2.921,6.525 6.525,6.525 h 26.249 c 19.486,0 35.34,15.854 35.34,35.34 0.003,19.487 -15.85,35.34 -35.338,35.34 z"
   id="path2973" />
	</g>
</g></g><g
         style="fill:#000000"
         id="g7002"
         transform="matrix(0.35415492,0,0,0.35415393,531.26996,320.57165)"
         clip-path="url(#clipPath7173)"><g
           id="g7000"
           transform="translate(-43.986714,-17.212236)">
	<g
   id="g6998">
		<path
   d="M 256.581,147.826 C 253.696,125.128 235.028,107.288 211.957,105.69 199.345,74.956 169.29,54.615 135.771,54.615 92.523,54.615 56.954,88.121 53.662,130.538 23.788,132.214 0,157.048 0,187.333 0,218.7 25.519,244.219 56.886,244.219 h 193.558 c 26.682,0 48.39,-21.707 48.39,-48.39 0,-24.606 -18.456,-44.979 -42.253,-48.003 z m -6.138,83.342 H 56.886 c -24.171,0 -43.836,-19.664 -43.836,-43.835 0,-24.171 19.665,-43.836 43.836,-43.836 0.798,0 1.668,0.029 2.66,0.089 3.77,0.224 6.919,-2.773 6.919,-6.513 0,-0.063 -0.001,-0.125 -0.003,-0.188 0.045,-38.178 31.12,-69.221 69.308,-69.221 29.502,0 55.817,18.727 65.482,46.601 0.884,2.548 3.175,4.477 6.743,4.373 16.236,-0.571 32.036,11.354 35.307,28.8 h -19.11 c -3.604,0 -6.525,2.921 -6.525,6.525 0,3.604 2.921,6.525 6.525,6.525 h 26.249 c 19.486,0 35.34,15.854 35.34,35.34 0.003,19.487 -15.85,35.34 -35.338,35.34 z"
   id="path6996" />
	</g>
</g></g><g
         style="fill:#000000"
         id="g7010"
         transform="matrix(0.35415492,0,0,0.35415393,401.47112,195.94679)"
         clip-path="url(#clipPath7169)"><g
           id="g7008"
           transform="translate(-43.986714,-17.212236)">
	<g
   id="g7006">
		<path
   d="M 256.581,147.826 C 253.696,125.128 235.028,107.288 211.957,105.69 199.345,74.956 169.29,54.615 135.771,54.615 92.523,54.615 56.954,88.121 53.662,130.538 23.788,132.214 0,157.048 0,187.333 0,218.7 25.519,244.219 56.886,244.219 h 193.558 c 26.682,0 48.39,-21.707 48.39,-48.39 0,-24.606 -18.456,-44.979 -42.253,-48.003 z m -6.138,83.342 H 56.886 c -24.171,0 -43.836,-19.664 -43.836,-43.835 0,-24.171 19.665,-43.836 43.836,-43.836 0.798,0 1.668,0.029 2.66,0.089 3.77,0.224 6.919,-2.773 6.919,-6.513 0,-0.063 -0.001,-0.125 -0.003,-0.188 0.045,-38.178 31.12,-69.221 69.308,-69.221 29.502,0 55.817,18.727 65.482,46.601 0.884,2.548 3.175,4.477 6.743,4.373 16.236,-0.571 32.036,11.354 35.307,28.8 h -19.11 c -3.604,0 -6.525,2.921 -6.525,6.525 0,3.604 2.921,6.525 6.525,6.525 h 26.249 c 19.486,0 35.34,15.854 35.34,35.34 0.003,19.487 -15.85,35.34 -35.338,35.34 z"
   id="path7004" />
	</g>
</g></g><g
         style="fill:#000000"
         id="g7018"
         transform="matrix(0.35415492,0,0,0.35415393,401.47112,460.53012)"
         clip-path="url(#clipPath7165)"><g
           id="g7016"
           transform="translate(-43.986714,-17.212236)">
	<g
   id="g7014">
		<path
   d="M 256.581,147.826 C 253.696,125.128 235.028,107.288 211.957,105.69 199.345,74.956 169.29,54.615 135.771,54.615 92.523,54.615 56.954,88.121 53.662,130.538 23.788,132.214 0,157.048 0,187.333 0,218.7 25.519,244.219 56.886,244.219 h 193.558 c 26.682,0 48.39,-21.707 48.39,-48.39 0,-24.606 -18.456,-44.979 -42.253,-48.003 z m -6.138,83.342 H 56.886 c -24.171,0 -43.836,-19.664 -43.836,-43.835 0,-24.171 19.665,-43.836 43.836,-43.836 0.798,0 1.668,0.029 2.66,0.089 3.77,0.224 6.919,-2.773 6.919,-6.513 0,-0.063 -0.001,-0.125 -0.003,-0.188 0.045,-38.178 31.12,-69.221 69.308,-69.221 29.502,0 55.817,18.727 65.482,46.601 0.884,2.548 3.175,4.477 6.743,4.373 16.236,-0.571 32.036,11.354 35.307,28.8 h -19.11 c -3.604,0 -6.525,2.921 -6.525,6.525 0,3.604 2.921,6.525 6.525,6.525 h 26.249 c 19.486,0 35.34,15.854 35.34,35.34 0.003,19.487 -15.85,35.34 -35.338,35.34 z"
   id="path7012" />
	</g>
</g></g></g></g></svg>
